# xmcd
#
# Track frame offsets:
#	150
#	9231
#	21830
#	34701
#	47488
#	59020
#	71472
#	81336
#	93860
#	105120
#	118486
#	127915
#	139705
#	152916
#	163829
#	176194
#	187696
#	200952
#
# Disc length: 2807 seconds
#
# Revision: 3
# Processed by: cddbd v1.5.2PL0 Copyright (c) Steve Scherf et al.
# Submitted via: EZCDAudioConverter 2.0.3.1
#
DISCID=f00af512
DTITLE=Various Artist - Country Greats - Cd 1
DYEAR=2007
DGENRE=Country
TTITLE0=Frankie Lane - Rawhide
TTITLE1=Johnny Cash - Folsom Prison Blues
TTITLE2=Lynn Anderson - Rose Garden
TTITLE3=Dolly Parton - Little Blossem
TTITLE4=Barbara Fairchild - Cheating Is
TTITLE5=Charley Pride - Help Me Make It Through The Night
TTITLE6=Boxcar Willie - King Of The Road
TTITLE7=Billie Jo Spears - He's On The Run Again
TTITLE8=Patsy Cline - Just Out Of Reach
TTITLE9=The Carter Family - Coal Miner's Blues
TTITLE10=Willie Nelson - Building Heartaches
TTITLE11=Roy Acuff - Just To Ease My Worried Mind
TTITLE12=Jerry Lee Lewis - You Win Again
TTITLE13=Donna Fargo - Wishful Thinking
TTITLE14=Gene Autry - Deep In The Heart Of Texas
TTITLE15=Ed Bruce - Baby That's Good
TTITLE16=Tex Ritter - Jealous Heart
TTITLE17=Webb Pierce - In The Jaihouse Now
EXTD=
EXTT0=
EXTT1=
EXTT2=
EXTT3=
EXTT4=
EXTT5=
EXTT6=
EXTT7=
EXTT8=
EXTT9=
EXTT10=
EXTT11=
EXTT12=
EXTT13=
EXTT14=
EXTT15=
EXTT16=
EXTT17=
PLAYORDER=
